<svg width="76" height="53" viewBox="0 0 76 53" fill="none" xmlns="http://www.w3.org/2000/svg">
<circle cx="39" cy="18" r="18" fill="#E8F3FF"/>
<path d="M42.375 8.3501C43.1481 8.3501 43.775 8.97704 43.775 9.7501V27.2501C43.775 28.0232 43.1481 28.6501 42.375 28.6501H32.75C31.9769 28.6501 31.35 28.0232 31.35 27.2501V9.7501C31.35 8.97704 31.9769 8.3501 32.75 8.3501H42.375Z" fill="#D1E7FF"/>
<path d="M42.4412 8.3513C43.5671 8.40366 43.5073 10.0998 42.3802 10.0998H37.825C35.2155 10.0998 33.1 12.2152 33.1 14.8248V28.6498H32.75C31.9768 28.6498 31.35 28.023 31.35 27.2498V9.74976C31.35 8.97657 31.9768 8.34976 32.75 8.34976C32.8134 8.34976 42.3898 8.34889 42.4412 8.3513Z" fill="#E8F3FF"/>
<path d="M43.775 25.5874V27.2499C43.775 28.023 43.1481 28.6499 42.375 28.6499H32.75C31.9769 28.6499 31.35 28.023 31.35 27.2499V25.5874H43.775Z" fill="#A2D0FF"/>
<path d="M33.1 25.5874V27.2551C33.1 28.3953 31.35 28.4536 31.35 27.2499V25.5874H33.1Z" fill="#D1E7FF"/>
<path d="M46.8375 13.7751V20.6001C46.8375 21.1798 46.3672 21.6501 45.7875 21.6501H37.5625V12.7251H45.7875C46.3672 12.7251 46.8375 13.1954 46.8375 13.7751Z" fill="#B9DCFF"/>
<path d="M46.8375 13.7751V14.6829C46.8375 15.2535 46.3808 15.7152 45.8103 15.7305C42.74 15.8129 40.2065 17.8025 39.3763 20.8725C39.2523 21.3311 38.8375 21.6501 38.3624 21.6501H37.5625V12.7251H45.7875C46.3674 12.7251 46.8375 13.1952 46.8375 13.7751Z" fill="#D1E7FF"/>
<path d="M37.5625 14.7373H46.8375V16.7498H37.5625V14.7373Z" fill="#A2D0FF"/>
<path d="M46.8362 14.7373C46.8082 15.2824 46.3624 15.7156 45.8103 15.7304C44.8259 15.7567 43.5869 15.9868 42.3658 16.7498H37.5625V14.7373H46.8362Z" fill="#B9DCFF"/>
<path d="M37.125 27.3813C36.9317 27.3813 36.775 27.2245 36.775 27.0312C36.775 26.838 36.9317 26.6812 37.125 26.6812H38C38.1933 26.6812 38.35 26.838 38.35 27.0312C38.35 27.2245 38.1933 27.3813 38 27.3813H37.125ZM45.7875 12.375H44.125V9.75C44.125 8.78505 43.34 8 42.375 8H32.75C31.7851 8 31 8.78505 31 9.75V27.25C31 28.215 31.7851 29 32.75 29H42.375C43.34 29 44.125 28.215 44.125 27.25V23.6187C44.125 23.4255 43.9683 23.2688 43.775 23.2688C43.5817 23.2688 43.425 23.4255 43.425 23.6187V25.2375H33.4063C33.213 25.2375 33.0563 25.3942 33.0563 25.5875C33.0563 25.7808 33.213 25.9375 33.4063 25.9375H43.425V27.25C43.425 27.8289 42.9539 28.3 42.375 28.3H32.75C32.1711 28.3 31.7 27.8289 31.7 27.25V9.75C31.7 9.17106 32.1711 8.7 32.75 8.7H42.375C42.9539 8.7 43.425 9.17106 43.425 9.75V12.375H37.9125V11.85C37.9125 11.6567 37.7558 11.5 37.5625 11.5C37.3692 11.5 37.2125 11.6567 37.2125 11.85V22.525C37.2125 22.7183 37.3692 22.875 37.5625 22.875C37.7558 22.875 37.9125 22.7183 37.9125 22.525V13.075H45.7875C46.1735 13.075 46.4875 13.389 46.4875 13.775V14.3875H39.1813C38.988 14.3875 38.8313 14.5442 38.8313 14.7375C38.8313 14.9308 38.988 15.0875 39.1813 15.0875H46.4875V16.4H39.1813C38.988 16.4 38.8313 16.5567 38.8313 16.75C38.8313 16.9433 38.988 17.1 39.1813 17.1H46.4875V20.6C46.4875 20.986 46.1735 21.3 45.7875 21.3H39.6188C39.4255 21.3 39.2688 21.4567 39.2688 21.65C39.2688 21.8433 39.4255 22 39.6188 22H45.7875C46.5595 22 47.1875 21.372 47.1875 20.6V13.775C47.1875 13.003 46.5595 12.375 45.7875 12.375Z" fill="#2E58FF"/>
<path d="M1.02871 49.1055C1.10683 50.3652 2.15664 51.1709 3.71914 51.1709C5.38906 51.1709 6.43398 50.3262 6.43398 48.9785C6.43398 47.9189 5.83828 47.333 4.39297 46.9961L3.6166 46.8057C2.69863 46.5908 2.32754 46.3027 2.32754 45.7998C2.32754 45.165 2.90371 44.75 3.76797 44.75C4.58828 44.75 5.15469 45.1553 5.25723 45.8047H6.32168C6.2582 44.6182 5.21328 43.7832 3.78262 43.7832C2.24453 43.7832 1.21914 44.6182 1.21914 45.873C1.21914 46.9082 1.80019 47.5234 3.07461 47.8213L3.98281 48.041C4.91543 48.2607 5.32558 48.583 5.32558 49.1201C5.32558 49.7451 4.68105 50.1992 3.80215 50.1992C2.85976 50.1992 2.20547 49.7744 2.11269 49.1055H1.02871ZM7.97187 51H9.0168V45.6826H7.97187V51ZM8.49433 44.7598C8.86055 44.7598 9.1584 44.4521 9.1584 44.0762C9.1584 43.6953 8.86055 43.3877 8.49433 43.3877C8.12812 43.3877 7.83027 43.6953 7.83027 44.0762C7.83027 44.4521 8.12812 44.7598 8.49433 44.7598ZM10.7598 51H11.8096V47.748C11.8096 47.0645 12.293 46.542 12.9326 46.542C13.5576 46.542 13.958 46.9082 13.958 47.5088V51H14.9883V47.6553C14.9883 47.0303 15.4326 46.542 16.1113 46.542C16.7998 46.542 17.1416 46.8936 17.1416 47.6113V51H18.1914V47.3379C18.1914 46.2295 17.5664 45.5801 16.4922 45.5801C15.7549 45.5801 15.1445 45.9561 14.876 46.5371H14.793C14.5586 45.9561 14.0557 45.5801 13.3281 45.5801C12.6201 45.5801 12.083 45.9365 11.8486 46.5371H11.7705V45.6826H10.7598V51ZM24.3484 45.6826H23.2986V48.793C23.2986 49.6279 22.8348 50.1309 21.9852 50.1309C21.2137 50.1309 20.867 49.7207 20.867 48.8613V45.6826H19.8172V49.1348C19.8172 50.3848 20.4715 51.1025 21.6482 51.1025C22.4539 51.1025 22.9959 50.7607 23.2547 50.1553H23.3377V51H24.3484V45.6826ZM26.1207 51H27.1705V43.6074H26.1207V51ZM30.6859 50.2041C30.1146 50.2041 29.6996 49.9258 29.6996 49.4473C29.6996 48.9785 30.0316 48.7295 30.7641 48.6807L32.0629 48.5977V49.042C32.0629 49.7012 31.477 50.2041 30.6859 50.2041ZM30.4174 51.0879C31.1156 51.0879 31.6967 50.7852 32.0141 50.2529H32.0971V51H33.1078V47.3672C33.1078 46.2441 32.3559 45.5801 31.0229 45.5801C29.8168 45.5801 28.9574 46.166 28.85 47.0791H29.8656C29.9828 46.7031 30.3881 46.4883 30.974 46.4883C31.6918 46.4883 32.0629 46.8057 32.0629 47.3672V47.8262L30.6225 47.9092C29.3578 47.9873 28.6449 48.5391 28.6449 49.4961C28.6449 50.4678 29.392 51.0879 30.4174 51.0879ZM34.6799 47.1865C34.6799 47.9775 35.1486 48.4316 36.1594 48.6709L37.0871 48.8857C37.6193 49.0127 37.8684 49.2178 37.8684 49.5352C37.8684 49.96 37.4045 50.2529 36.7502 50.2529C36.1154 50.2529 35.7248 49.999 35.593 49.5889H34.5432C34.6359 50.5312 35.4611 51.1025 36.7258 51.1025C37.9953 51.1025 38.9279 50.4336 38.9279 49.4326C38.9279 48.6514 38.4543 48.2168 37.4436 47.9824L36.5598 47.7773C35.9836 47.6455 35.715 47.4453 35.715 47.1279C35.715 46.7129 36.1594 46.4346 36.7453 46.4346C37.341 46.4346 37.7219 46.6836 37.8195 47.0742H38.8254C38.7229 46.1367 37.9416 45.5801 36.7453 45.5801C35.5441 45.5801 34.6799 46.2441 34.6799 47.1865ZM40.4121 51H41.457V45.6826H40.4121V51ZM40.9346 44.7598C41.3008 44.7598 41.5986 44.4521 41.5986 44.0762C41.5986 43.6953 41.3008 43.3877 40.9346 43.3877C40.5684 43.3877 40.2705 43.6953 40.2705 44.0762C40.2705 44.4521 40.5684 44.7598 40.9346 44.7598ZM47.3502 51V48.6855L48.1412 47.8018L50.5045 51H51.8717L48.9127 47.0156L51.6373 43.9541H50.3434L47.4283 47.2549H47.3502V43.9541H46.2564V51H47.3502ZM53.102 51H54.1518V47.8604C54.1518 47.1133 54.7133 46.6104 55.5092 46.6104C55.6947 46.6104 56.0072 46.6445 56.0951 46.6738V45.6387C55.9828 45.6094 55.7826 45.5947 55.6264 45.5947C54.933 45.5947 54.3422 45.9756 54.1908 46.498H54.1127V45.6826H53.102V51ZM59.3518 46.4736C60.1281 46.4736 60.6359 47.0156 60.6604 47.8506H57.9748C58.0334 47.0205 58.5754 46.4736 59.3518 46.4736ZM60.6555 49.5645C60.4602 49.9795 60.0256 50.209 59.3908 50.209C58.551 50.209 58.009 49.6182 57.9748 48.6855V48.627H61.7297V48.2607C61.7297 46.5908 60.8361 45.5801 59.3566 45.5801C57.8576 45.5801 56.9055 46.6592 56.9055 48.3584C56.9055 50.0576 57.8381 51.1025 59.3615 51.1025C60.5773 51.1025 61.4367 50.5117 61.6662 49.5645H60.6555ZM65.1328 51.0879C65.8652 51.0879 66.4854 50.7412 66.8027 50.1602H66.8857V51H67.8916V43.6074H66.8418V46.5273H66.7637C66.4756 45.9414 65.8604 45.5947 65.1328 45.5947C63.79 45.5947 62.9258 46.6592 62.9258 48.3389C62.9258 50.0234 63.7803 51.0879 65.1328 51.0879ZM65.4307 46.5371C66.3096 46.5371 66.8613 47.2354 66.8613 48.3438C66.8613 49.457 66.3145 50.1455 65.4307 50.1455C64.542 50.1455 64.0098 49.4668 64.0098 48.3389C64.0098 47.2207 64.5469 46.5371 65.4307 46.5371ZM69.6883 51H70.7332V45.6826H69.6883V51ZM70.2107 44.7598C70.577 44.7598 70.8748 44.4521 70.8748 44.0762C70.8748 43.6953 70.577 43.3877 70.2107 43.3877C69.8445 43.3877 69.5467 43.6953 69.5467 44.0762C69.5467 44.4521 69.8445 44.7598 70.2107 44.7598ZM72.8473 44.3594V45.707H72.0025V46.5908H72.8473V49.5938C72.8473 50.6191 73.3111 51.0293 74.4781 51.0293C74.6832 51.0293 74.8785 51.0049 75.0494 50.9756V50.1016C74.9029 50.1162 74.8102 50.126 74.649 50.126C74.1266 50.126 73.8971 49.8818 73.8971 49.3252V46.5908H75.0494V45.707H73.8971V44.3594H72.8473Z" fill="black"/>
</svg>
