<svg width="51" height="53" viewBox="0 0 51 53" fill="none" xmlns="http://www.w3.org/2000/svg">
<mask id="mask0" mask-type="alpha" maskUnits="userSpaceOnUse" x="8" y="0" width="36" height="36">
<circle cx="26" cy="18" r="18" fill="#C4C4C4"/>
</mask>
<g mask="url(#mask0)">
<path d="M44 0H8V36H44V0Z" fill="#1BD741"/>
<path d="M13.4106 30.6031L15.174 24.3401C14.04 22.4137 13.443 20.2219 13.443 17.9702C13.443 11.0373 19.0833 5.39697 26.0162 5.39697C32.9491 5.39697 38.5894 11.0373 38.5894 17.9702C38.5894 24.9031 32.9491 30.5434 26.0162 30.5434C23.856 30.5434 21.7407 29.9905 19.8694 28.9405L13.4106 30.6031ZM20.1996 26.6531L20.5845 26.8881C22.216 27.8841 24.0943 28.4106 26.0162 28.4106C31.7731 28.4106 36.4566 23.727 36.4566 17.9702C36.4566 12.2134 31.7731 7.52981 26.0162 7.52981C20.2594 7.52981 15.5758 12.2134 15.5758 17.9702C15.5758 19.9761 16.1459 21.924 17.2244 23.6033L17.4835 24.0069L16.4681 27.6136L20.1996 26.6531Z" fill="white"/>
<path d="M22.4843 12.1182L21.6684 12.0737C21.4121 12.0598 21.1608 12.1454 20.9671 12.3136C20.5716 12.6571 19.9391 13.3211 19.7449 14.1864C19.4552 15.4766 19.9029 17.0565 21.0615 18.6364C22.2201 20.2163 24.3792 22.7441 28.1973 23.8237C29.4276 24.1716 30.3954 23.9371 31.1421 23.4594C31.7336 23.0811 32.1413 22.4739 32.2882 21.7874L32.4185 21.179C32.4598 20.9856 32.3617 20.7894 32.182 20.7066L29.4247 19.4357C29.2457 19.3532 29.0335 19.4053 28.9131 19.5613L27.8306 20.9646C27.7489 21.0706 27.6089 21.1126 27.4825 21.0682C26.7412 20.8077 24.2581 19.7678 22.8957 17.1433C22.8366 17.0294 22.8513 16.8913 22.9351 16.7942L23.9696 15.5974C24.0753 15.4752 24.102 15.3034 24.0385 15.1549L22.8499 12.3742C22.7866 12.2262 22.6448 12.127 22.4843 12.1182Z" fill="white"/>
</g>
<path d="M4.87793 45.8291H4.94629L6.45996 51H7.49023L9.39453 43.9541H8.25684L6.96777 49.3496H6.89941L5.41992 43.9541H4.4043L2.93457 49.3496H2.86621L1.57227 43.9541H0.43457L2.33398 51H3.36914L4.87793 45.8291ZM10.8445 51H11.8943V47.8945C11.8943 47.0889 12.3729 46.5469 13.2322 46.5469C13.9744 46.5469 14.3699 46.9766 14.3699 47.8262V51H15.4197V47.5674C15.4197 46.3027 14.7215 45.585 13.5887 45.585C12.7879 45.585 12.2264 45.9414 11.9676 46.5371H11.8846V43.6074H10.8445V51ZM18.8375 50.2041C18.2662 50.2041 17.8512 49.9258 17.8512 49.4473C17.8512 48.9785 18.1832 48.7295 18.9156 48.6807L20.2145 48.5977V49.042C20.2145 49.7012 19.6285 50.2041 18.8375 50.2041ZM18.5689 51.0879C19.2672 51.0879 19.8482 50.7852 20.1656 50.2529H20.2486V51H21.2594V47.3672C21.2594 46.2441 20.5074 45.5801 19.1744 45.5801C17.9684 45.5801 17.109 46.166 17.0016 47.0791H18.0172C18.1344 46.7031 18.5396 46.4883 19.1256 46.4883C19.8434 46.4883 20.2145 46.8057 20.2145 47.3672V47.8262L18.774 47.9092C17.5094 47.9873 16.7965 48.5391 16.7965 49.4961C16.7965 50.4678 17.5436 51.0879 18.5689 51.0879ZM23.3246 44.3594V45.707H22.4799V46.5908H23.3246V49.5938C23.3246 50.6191 23.7885 51.0293 24.9555 51.0293C25.1605 51.0293 25.3559 51.0049 25.5268 50.9756V50.1016C25.3803 50.1162 25.2875 50.126 25.1264 50.126C24.6039 50.126 24.3744 49.8818 24.3744 49.3252V46.5908H25.5268V45.707H24.3744V44.3594H23.3246ZM26.7619 47.1865C26.7619 47.9775 27.2307 48.4316 28.2414 48.6709L29.1691 48.8857C29.7014 49.0127 29.9504 49.2178 29.9504 49.5352C29.9504 49.96 29.4865 50.2529 28.8322 50.2529C28.1975 50.2529 27.8068 49.999 27.675 49.5889H26.6252C26.718 50.5312 27.5432 51.1025 28.8078 51.1025C30.0773 51.1025 31.01 50.4336 31.01 49.4326C31.01 48.6514 30.5363 48.2168 29.5256 47.9824L28.6418 47.7773C28.0656 47.6455 27.7971 47.4453 27.7971 47.1279C27.7971 46.7129 28.2414 46.4346 28.8273 46.4346C29.423 46.4346 29.8039 46.6836 29.9016 47.0742H30.9074C30.8049 46.1367 30.0236 45.5801 28.8273 45.5801C27.6262 45.5801 26.7619 46.2441 26.7619 47.1865ZM34.2129 50.2041C33.6416 50.2041 33.2266 49.9258 33.2266 49.4473C33.2266 48.9785 33.5586 48.7295 34.291 48.6807L35.5898 48.5977V49.042C35.5898 49.7012 35.0039 50.2041 34.2129 50.2041ZM33.9443 51.0879C34.6426 51.0879 35.2236 50.7852 35.541 50.2529H35.624V51H36.6348V47.3672C36.6348 46.2441 35.8828 45.5801 34.5498 45.5801C33.3438 45.5801 32.4844 46.166 32.377 47.0791H33.3926C33.5098 46.7031 33.915 46.4883 34.501 46.4883C35.2188 46.4883 35.5898 46.8057 35.5898 47.3672V47.8262L34.1494 47.9092C32.8848 47.9873 32.1719 48.5391 32.1719 49.4961C32.1719 50.4678 32.9189 51.0879 33.9443 51.0879ZM41.0877 45.5947C40.365 45.5947 39.74 45.9561 39.4178 46.5615H39.3396V45.6826H38.3289V52.7676H39.3787V50.1943H39.4617C39.74 50.7559 40.3406 51.0879 41.0975 51.0879C42.4402 51.0879 43.2947 50.0283 43.2947 48.3389C43.2947 46.6494 42.4402 45.5947 41.0877 45.5947ZM40.7898 50.1455C39.9109 50.1455 39.3592 49.4521 39.3592 48.3438C39.3592 47.2305 39.9109 46.5371 40.7947 46.5371C41.6834 46.5371 42.2156 47.2158 42.2156 48.3389C42.2156 49.4668 41.6834 50.1455 40.7898 50.1455ZM47.5182 45.5947C46.7955 45.5947 46.1705 45.9561 45.8482 46.5615H45.7701V45.6826H44.7594V52.7676H45.8092V50.1943H45.8922C46.1705 50.7559 46.7711 51.0879 47.5279 51.0879C48.8707 51.0879 49.7252 50.0283 49.7252 48.3389C49.7252 46.6494 48.8707 45.5947 47.5182 45.5947ZM47.2203 50.1455C46.3414 50.1455 45.7896 49.4521 45.7896 48.3438C45.7896 47.2305 46.3414 46.5371 47.2252 46.5371C48.1139 46.5371 48.6461 47.2158 48.6461 48.3389C48.6461 49.4668 48.1139 50.1455 47.2203 50.1455Z" fill="black"/>
</svg>
